<svg width="26" height="26" viewBox="0 0 26 26" fill="none" xmlns="http://www.w3.org/2000/svg">
<path d="M1 1H25V25H1V1Z" fill="#131316"/>
<path d="M11.3849 3.65561C11.5818 3.18895 11.0397 2.75899 10.6301 3.05689L2.41184 9.03382C2.15309 9.222 2.00001 9.52262 2.00001 9.84256V14.4828C2.00001 14.6932 2.13171 14.8811 2.32948 14.9529L5.15637 15.9785C5.65685 16.1601 6.21185 15.9177 6.41879 15.4271L11.3849 3.65561Z" fill="#F2F2F3"/>
<path d="M2.62116 16.9076C2.32217 16.7916 2.00001 17.0122 2 17.3329V17.3329C2 17.4889 2.07968 17.634 2.21127 17.7178L11.2307 23.4574C11.3326 23.5223 11.4408 23.3844 11.3536 23.3008L6.22556 18.3879C6.13043 18.2968 6.01823 18.2254 5.89541 18.1777L2.62116 16.9076Z" fill="#F2F2F3"/>
<path d="M14.6465 23.3008C14.5592 23.3844 14.6674 23.5223 14.7693 23.4574L23.7887 17.7178C23.9203 17.634 24 17.4889 24 17.3329V17.3329C24 17.0122 23.6778 16.7916 23.3788 16.9076L20.1046 18.1777C19.9818 18.2254 19.8696 18.2968 19.7745 18.3879L14.6465 23.3008Z" fill="#F2F2F3"/>
<path d="M23.6705 14.9529C23.8683 14.8811 24 14.6932 24 14.4828V9.84256C24 9.52262 23.8469 9.222 23.5882 9.03382L15.3699 3.05689C14.9603 2.75899 14.4183 3.18895 14.6151 3.65561L19.5812 15.4271C19.7882 15.9177 20.3432 16.1601 20.8436 15.9785L23.6705 14.9529Z" fill="#F2F2F3"/>
<path d="M13.7142 21.9615C13.3221 22.3616 12.6779 22.3616 12.2858 21.9615L8.10635 17.6968C7.83068 17.4155 7.7458 16.9986 7.88954 16.6319L12.069 5.97004C12.4009 5.12332 13.5991 5.12333 13.931 5.97004L18.1105 16.6319C18.2542 16.9986 18.1693 17.4155 17.8937 17.6968L13.7142 21.9615Z" fill="#F2F2F3"/>
<path d="M1 1V0.5H0.5V1H1ZM25 1H25.5V0.5H25V1ZM25 25V25.5H25.5V25H25ZM1 25H0.5V25.5H1V25ZM0.5 1V2H1.5V1H0.5ZM0.5 4V6H1.5V4H0.5ZM0.5 8V10H1.5V8H0.5ZM0.5 12V14H1.5V12H0.5ZM0.5 16V18H1.5V16H0.5ZM0.5 20V22H1.5V20H0.5ZM0.5 24V25H1.5V24H0.5ZM1 25.5H2V24.5H1V25.5ZM4 25.5H6V24.5H4V25.5ZM8 25.5H10V24.5H8V25.5ZM12 25.5H14V24.5H12V25.5ZM16 25.5H18V24.5H16V25.5ZM20 25.5H22V24.5H20V25.5ZM24 25.5H25V24.5H24V25.5ZM25.5 25V24H24.5V25H25.5ZM25.5 22V20H24.5V22H25.5ZM25.5 18V16H24.5V18H25.5ZM25.5 14V12H24.5V14H25.5ZM25.5 10V8H24.5V10H25.5ZM25.5 6V4H24.5V6H25.5ZM25.5 2V1H24.5V2H25.5ZM25 0.5H24V1.5H25V0.5ZM22 0.5H20V1.5H22V0.5ZM18 0.5H16V1.5H18V0.5ZM14 0.5H12V1.5H14V0.5ZM10 0.5H8V1.5H10V0.5ZM6 0.5H4V1.5H6V0.5ZM2 0.5H1V1.5H2V0.5ZM1 1V0H0V1H1ZM25 1H26V0H25V1ZM25 25V26H26V25H25ZM1 25H0V26H1V25ZM0 1V2H2V1H0ZM0 4V6H2V4H0ZM0 8V10H2V8H0ZM0 12V14H2V12H0ZM0 16V18H2V16H0ZM0 20V22H2V20H0ZM0 24V25H2V24H0ZM1 26H2V24H1V26ZM4 26H6V24H4V26ZM8 26H10V24H8V26ZM12 26H14V24H12V26ZM16 26H18V24H16V26ZM20 26H22V24H20V26ZM24 26H25V24H24V26ZM26 25V24H24V25H26ZM26 22V20H24V22H26ZM26 18V16H24V18H26ZM26 14V12H24V14H26ZM26 10V8H24V10H26ZM26 6V4H24V6H26ZM26 2V1H24V2H26ZM25 0H24V2H25V0ZM22 0H20V2H22V0ZM18 0H16V2H18V0ZM14 0H12V2H14V0ZM10 0H8V2H10V0ZM6 0H4V2H6V0ZM2 0H1V2H2V0Z" fill="#4C4CFF"/>
</svg>
